<svg id="Layer_1" data-name="Layer 1" xmlns="http://www.w3.org/2000/svg" xmlns:xlink="http://www.w3.org/1999/xlink" viewBox="0 0 177 167"><defs><style>.cls-1{fill:none;}.cls-2{clip-path:url(#clip-path);}.cls-3{fill:#004c97;}</style><clipPath id="clip-path"><rect class="cls-1" x="3.92" y="-8.92" width="173.19" height="183.59"/></clipPath></defs><title>Artboard 1</title><g class="cls-2"><g id="IMF_Seal_Blue" data-name="IMF Seal Blue"><path class="cls-3" d="M27.52,109.8l.6-.16-1.68-6.34c-2.65-.16-5-.44-7.49-.68h0c1.87-1.6,4.16-3.49,6-5l-1.57-6-.6.16c.3,1.26.18,1.42-.76,1.66l-4.12,1.07a50.63,50.63,0,0,1-5,1.11c-.73.07-1-.09-1.17-.6l-.32-.82-.62.16,1.31,5,.62-.16-.14-1a1,1,0,0,1,.68-1.3h0a46.39,46.39,0,0,1,4.87-1.5l2.91-.75v.17l-8.58,6.26.58,2.21,10.39.6v.18l-7.86,2c-.93.24-1.07.16-1.45-1.07l-.62.16,2,7.65.62-.16c-.3-1.25-.2-1.4.73-1.65l9.07-2.38c.94-.24,1.1-.18,1.48,1.08"/><path class="cls-3" d="M29.64,126.13c3.67-2,4.74-5.39,2-10.18s-6.1-5.58-9.75-3.55-4.72,5.42-2,10.16,6.12,5.6,9.77,3.57m-9.12-4c-.76-1.36.12-2.79,4-5,4.3-2.42,5.8-2,6.44-.87,1.07,2-1.6,3.65-4.09,5-3.75,2.1-5.58,2.36-6.42.84"/><path class="cls-3" d="M61,155.73l4.17-9.41.63.28c1.22.54,1.34.76,1.12,3.88l.92.4,1.59-3.61L57,141.73l-1.59,3.6.94.42c2.18-2.27,2.39-2.33,3.6-1.79l.64.28-4.16,9.41c-.4.9-.78.86-2.26.24l-.26.58,8.36,3.69.26-.58c-1.46-.7-1.78-1-1.38-1.85"/><path class="cls-3" d="M79.74,161.14A107.83,107.83,0,0,1,77.23,149l-4.57-1.06a116.39,116.39,0,0,1-7.59,10c-.6.58-.78.63-2.16.39l-.14.62,5.61,1.3.14-.62-1.44-.44c-.59-.18-.65-.42-.37-.88s1-1.59,1.63-2.57l4.49,1c.16.86.36,2.21.44,2.95s0,.8-.62.73l-1.26-.16-.14.62,10,2.32.14-.62c-1.4-.44-1.44-.56-1.74-1.39m-10.84-6.24c.75-1.18,2.09-3.09,2.83-4.12h.14c.26,1.55.62,3.69.81,5Z"/><path class="cls-3" d="M114.15,147.6c.28-.82.68-1,1.66-1.28l-.16-.6-5.17,1.33.16.6,1.32-.22c.46,0,.56.16.48.66s-.57,3.35-1,5.44h0c-1.32-1.23-3.49-3.39-4.27-4.18-.3-.3-.32-.54,0-.66l1.18-.42-.16-.6-9.65,2.51.16.6c.94-.18,1.19-.18,1.81.28,1.14.86,4.09,3.51,5.58,4.93a1.74,1.74,0,0,1,.48.83l.62,2.59c.24.92.14,1-1.84,1.6l.16.62,10-2.58-.18-.54c-2,.46-2.15.42-2.42-.5l-.73-2.77a1.51,1.51,0,0,1,0-.94c.52-2,1.55-5.38,2-6.7"/><path class="cls-3" d="M134.15,147.58l-2.26-3.32.89-.61c1-.66,1.32-.5,2.91.53l.73-.52-2.77-4-.73.5c.4,2,.36,2.15-.62,2.83l-.89.62-2.75-4c-.3-.42-.26-.54.27-.92l.56-.38c1.56-1.07,2.49-.45,4.51.68l.73-.5-2.22-3.23-10.11,6.9.34.5c1.1-.7,1.26-.63,1.82.16l5.28,7.74c.56.79.52,1-.52,1.73l.36.52,6.86-4.68-.34-.7c-1.36.88-1.5.83-2,0"/><path class="cls-3" d="M149.14,129.88l-4.76-4.35c-.73-.66-.73-.84,0-1.7l-.46-.41-4.75,5.09.46.42c.82-.82,1-.8,1.7-.14l5.4,5c1.71,1.59,2.18,2.59,1.35,3.47s-1.85.52-3.58-1.08l-5.34-5c-.72-.66-.72-.84,0-1.7l-.45-.42-4.85,5.25.46.41c.81-.83,1-.81,1.71-.16l4.85,4.49c2.27,2.13,4.26,2.43,7.71-1.27s2.93-5.69.54-8"/><path class="cls-3" d="M162.4,95a5.82,5.82,0,0,0-5.15.5,8.6,8.6,0,0,0-2.93,5.28l-2.18,8.07.6.16c.38-1.23.54-1.31,1.48-1l9.07,2.45c.94.26,1,.4.72,1.66l.62.16,1.86-6.9a11.82,11.82,0,0,0,.46-5.78A5.86,5.86,0,0,0,162.38,95m3.49,9.7c-.2.76-.49.89-1,.72l-9.73-2.61c-.42-.11-.44-.35-.26-1,.52-2,2.46-2.55,6.28-1.52,4.85,1.3,5.13,3.17,4.79,4.41"/><path class="cls-3" d="M14.19,66.86l9.09,2.33c.94.24,1,.38.73,1.65l.62.16,2-7.75L26,63.09c-.36,1.27-.5,1.31-1.45,1.07l-9-2.42c-.94-.24-1.06-.36-.76-1.66l-.59-.17-2,7.76.6.16c.36-1.24.52-1.32,1.48-1.08"/><path class="cls-3" d="M27.05,41.69c-1.68-2.66-1.68-2.89-.86-4l.42-.54,8.09,6.36c.76.6.64,1-.32,2.25l.5.4,3.35-4.27V39.79l-.34-.22L29.8,33.22l.42-.54c.81-1.05,1.05-1.09,4-.11l.61-.78-3.11-2.43L23.26,40.15l3.11,2.42Z"/><path class="cls-3" d="M89,16.41l-1.37-.13c-.56,0-.66-.28-.5-.8s.6-1.76,1-2.85l4.21.14c.28.8.7,2,.92,2.81s.12.78-.44.82H91.66V17l9.47.32v-.65c-1.33-.16-1.39-.26-1.79-1A114.19,114.19,0,0,1,95,4.21l-4.29-.14a119.62,119.62,0,0,1-5.12,11.24c-.44.68-.6.78-1.87.81v.64l5.28.18Zm1.36-9.23h.13c.48,1.48,1.18,3.52,1.58,4.73l-3.57,0c.49-1.29,1.36-3.43,1.84-4.6"/><path class="cls-3" d="M106.53,6.75l.73.16-2.56,10c-.24.94-.64,1-2.18.6l-.16.62,8.83,2.27.16-.61c-1.55-.44-2-.66-1.65-1.6l2.55-10,.68.18c1.3.34,1.44.54,1.74,3.65l1,.24,1-3.83L103.28,5l-1,3.83,1,.26c1.78-2.59,2-2.69,3.25-2.36"/><path class="cls-3" d="M120.71,22.55,124.59,14c.4-.88.54-1,1.75-.46l.26-.55-7.36-3.33-.26.55c1.15.58,1.21.73.79,1.64l-3.88,8.53c-.4.87-.56.94-1.76.44l-.26.58,7.35,3.33.26-.58c-1.17-.58-1.21-.73-.82-1.62"/><path class="cls-3" d="M125.36,19.2c-2.43,3.4-1.8,7,3,10.43s8.45,2.81,10.87-.6,1.83-7-3-10.45-8.41-2.81-10.84.62m4.83,3.43c2.87-4,4.45-4.24,5.58-3.43,2,1.38.27,4.09-1.38,6.42-2.5,3.5-4,4.49-5.61,3.41s-1.23-2.69,1.4-6.4"/><path class="cls-3" d="M147.43,46.48c-.82,0-1-.14-1.64-1.21l-.55.3,2.45,4.68.56-.3-.54-1.25c-.22-.52,0-.73.44-.82s1.81-.34,3-.52l2,3.73c-.56.64-1.48,1.66-2,2.18s-.62.5-.94,0l-.66-.94-.55.3,4.38,8.4.56-.3c-.52-1.26-.46-1.34,0-2a114,114,0,0,1,7.79-9.48l-2-3.8a120.55,120.55,0,0,1-12.3,1.09m9.53,0v.12c-1,1.16-2.45,2.77-3.31,3.73L152,47.23c1.36-.22,3.65-.52,4.93-.68"/><path class="cls-3" d="M166.05,59.62l-.6.14c.26,1.27.14,1.41-.8,1.63l-9.15,2.14c-1,.21-1.09.14-1.41-1.12l-.62.14,2.75,12,4.17-.54-.22-1c-3.13-.73-3.71-1.18-4-2.55s-.24-1.62.7-1.82l9-2c1-.22,1.13,0,1.49,1.35l.6-.14Z"/><path class="cls-3" d="M54.22,144l2-2.67-10-7.33-.36.5c1,.8,1,1,.46,1.78l-5.57,7.53c-.58.78-.72.82-1.81,0l-.38.52L48.86,152l2-2.64-.68-.49c-2.59,1-3,.79-4.4-.2s-1.34-1-.7-1.88l2.39-3.27h0c1.12.82,1.42,1.06,1,2.38l.7.51,2-2.61-.7-.51c-1,.63-1.33.37-2.45-.44h0l2.61-3.53c.36-.49.44-.52,1-.14l.63.46c1.5,1.09,1.52,1.21,1.24,4Z"/><path class="cls-3" d="M52,28.68l-2.12-2.56-.66.56c.34,2.75,0,3.15-1.21,4.25s-1.3,1.08-2,.26L43.31,28h0c1.06-.9,1.36-1.14,2.56-.46l.68-.56-2.1-2.49-.68.56c.38,1.15,0,1.39-1,2.29h0L40,24c-.38-.46-.4-.54,0-1l.59-.5c1.42-1.19,1.54-1.19,4.15-.28l.68-.57-2.13-2.52-9.43,8,.4.48c1-.79,1.19-.77,1.81,0l5.56,6.58h4Z"/><path class="cls-3" d="M49.46,17.13l4.28,8.34c.44.85.38,1-.86,1.71l.3.56,7.7-4-.3-.56c-1.3.62-1.43.56-1.87-.3l-1.84-3.56.38-.2c.58-.3,2-1,2.42-.38a22.83,22.83,0,0,0,2,3.37c1,.9,1.51.44,3.72-.7L68.23,20l-.3-.56c-1.14.38-1.42.34-3-1.44-1-1.15-1.88-2.21-5.07-1.15v-.11c3.09-1.71,3-3.23,2.28-4.7-1.28-2.47-3.47-1.66-6.18-.26l-8.72,4.49.28.53c1.27-.61,1.45-.53,1.89.32m5.29-3.87A2.34,2.34,0,0,1,58,13.8a2.19,2.19,0,0,1,.29.57c.6,1.18.49,2.37-1.63,3.47l-.42.22-2-3.79c-.26-.52-.24-.7.44-1.06"/><path class="cls-3" d="M97.56,159.78c-.37-1.5-.65-2.83-4-3.35v-.12c3.53-.1,4.18-1.48,4.18-3.13,0-2.79-2.31-3.07-5.36-3.07H82.57v.62c1.42,0,1.54.18,1.54,1.15v9.38c0,1-.14,1.09-1.54,1.13V163h8.65v-.64c-1.43,0-1.53-.16-1.53-1.13v-4h.42c.66,0,2.21,0,2.33.78a23.08,23.08,0,0,0,.26,4c.52,1.28,1.14,1.1,3.64,1.1h3.17v-.73c-1.18-.18-1.42-.34-2-2.63m-7.4-4h-.49v-4.21c0-.58.1-.73.88-.73a2.35,2.35,0,0,1,2.78,1.83,2,2,0,0,1,0,.78c0,1.34-.67,2.31-3,2.31"/><path class="cls-3" d="M69.14,8.44,70.05,13a46.08,46.08,0,0,1,.76,4.75c0,.76-.8,1.08-1.34,1.28l-.55.17.12.62,6-1.21L74.9,18l-1.36.14a.93.93,0,0,1-1.11-.72h0v0c-.24-.64-.76-3-1.1-4.67l-.65-3.25h0c2.95,2.77,5.26,5.58,8.27,8.36l4-.8L81.61,9.89a28.13,28.13,0,0,1-.61-4c0-1,.75-1,1.27-1.2l.6-.16-.12-.64-6,1.2.12.6,1.3-.14a.86.86,0,0,1,1.07.61.29.29,0,0,0,0,.09,30.09,30.09,0,0,1,1,4l.42,2h0c-2.33-2-5-4.55-7.14-6.46L67.58,7l.12.6c1.28-.22,1.42-.1,1.62.85"/><path class="cls-3" d="M136.14,33.64l-.44-.4-.48.42.36.4h1l-.5-.44"/><path class="cls-3" d="M145.15,28l-3.46,3.09c-1.2,1.06-2.91,2.49-3.61,3h2.29c.68-.64,1.5-1.38,2.15-2L145,29.84h0c-.9,4-2.19,7.37-3,11.36l2.69,3,5.44-4.82a27,27,0,0,1,3.17-2.58c.84-.48,1.3.15,1.67.5l.44.44.46-.42-4-4.54-.45.42.77,1a.86.86,0,0,1,.06,1.23l-.06.06a30.15,30.15,0,0,1-3,2.95l-1.55,1.4h0c.56-3,1.39-6.64,2-9.43l-4.12-4.64-.46.42c.84,1,.8,1.18,0,1.82"/><path class="cls-3" d="M152.33,111.71c-.73-.63-.3-1.25,0-1.73l.26-.56-.54-.3-3,5.33.54.3.72-1.08a.88.88,0,0,1,1.16-.44l.08,0a32.52,32.52,0,0,1,3.61,1.76l1.83,1h0c-3,.49-6.72.9-9.55,1.28l-3,5.42.53.3c.66-1.12.84-1.16,1.7-.68l4,2.25a36.8,36.8,0,0,1,4.1,2.49c.56.5.32,1.3.1,1.84l-.21.53.55.3,3-5.38-.56-.3-.77,1.12a1,1,0,0,1-1.27.39h0c-.64-.22-2.79-1.36-4.27-2.18l-2.91-1.62h0c4-.46,7.68-.39,11.72-.91l2-3.55-6.36-3.53a28.53,28.53,0,0,1-3.47-2.13"/><path class="cls-3" d="M43.26,133.21c.81-.5,1.29.09,1.67.45l.46.42.46-.42-4.17-4.44-.45.42.8,1a.88.88,0,0,1,0,1.24l0,.06a31.73,31.73,0,0,1-2.79,2.89l-1.53,1.4h0c.49-3,1.21-6.65,1.74-9.47l-4.23-4.52-.46.42c.86,1,.84,1.16.12,1.81l-3.37,3.15c-1.23,1.16-3.05,2.76-3.63,3.16s-1.34-.1-1.78-.49l-.57-.36-.46.44,4.21,4.5.46-.44-.84-1.1a1,1,0,0,1,0-1.33h0c.42-.54,2.15-2.23,3.4-3.39l2.42-2.28h0c-.8,4-2,7.42-2.75,11.43l2.77,3,5.31-5a27,27,0,0,1,3.11-2.65"/><path class="cls-3" d="M18.11,55.21l4.25,2c1.54.69,3.73,1.75,4.31,2.13s.42,1.27.26,1.83l-.18.56.58.26,2.51-5.62-.58-.26-.68,1.2a.94.94,0,0,1-1.24.48h0c-.65-.18-2.89-1.12-4.44-1.79l-3-1.36h0c4-.82,7.61-1.06,11.6-2l1.66-3.71-6.6-3.15A27.71,27.71,0,0,1,22.88,44c-.78-.55-.4-1.23-.24-1.73l.22-.58-.56-.26-2.47,5.56.55.26L21,46.07a.87.87,0,0,1,1.12-.53l.08,0A31.57,31.57,0,0,1,26,47l2,.86h0c-3,.73-6.62,1.46-9.39,2l-2.63,5.88.56.26c.56-1.16.73-1.21,1.63-.82"/><polygon class="cls-3" points="16.06 81.41 17.46 77.4 18.68 81.41 22.68 81.41 19.37 83.92 20.67 87.85 17.36 85.34 13.75 87.95 15.26 83.82 12.04 81.41 16.06 81.41"/><polygon class="cls-3" points="161.34 81.41 162.76 77.4 163.95 81.41 167.98 81.41 164.65 83.92 165.97 87.85 162.66 85.34 159.03 87.95 160.55 83.82 157.33 81.41 161.34 81.41"/><path class="cls-3" d="M141.34,52.34V34.62H124.83a60,60,0,0,0-69.64,0H38.83V52.1a60.15,60.15,0,1,0,102.51.2m-1.27,22.06a30.13,30.13,0,0,1-47,28.31c-.58-.4-1.15-.82-1.7-1.27l-.77-.64a30.53,30.53,0,0,0,2.77-43.08,31.59,31.59,0,0,0-2.77-2.78l.35-.3,1-.77a30.13,30.13,0,0,1,48.19,20.53m-34.37,48.06a3.64,3.64,0,0,1-.66,0c-.26,0-.5.1-.76.12s-.55-.26-.86-.18l-.72.18-2,.42a21.55,21.55,0,0,1-2.79.12,13.36,13.36,0,0,1-1.55,0,3.31,3.31,0,0,1-1.58-.16,6.89,6.89,0,0,1,1.6-.49,12.49,12.49,0,0,0,1.71-.3,34.3,34.3,0,0,0,3.59-1.19,17.41,17.41,0,0,1,3.59-1.2,10.29,10.29,0,0,1,1.57,0h2.54a13.65,13.65,0,0,0,3.66-1,9.16,9.16,0,0,1,2.18-.54h1.08a.76.76,0,0,1,.46.12c.14,0,.56.56.38.73s-.22.38-.49.38h-.58c-.16,0-.42.3-.54.4l-1.75,1.49a31.53,31.53,0,0,1-2.45,2.18,15.57,15.57,0,0,1-1.48,1,10.92,10.92,0,0,1-1.7,1,17.9,17.9,0,0,1-3.76.82,18.71,18.71,0,0,1-3.51,0,13.9,13.9,0,0,1-2.69-.73c-1-.28-2-.54-2.83-.88s-1.84-.82-2.76-1.16a25.11,25.11,0,0,0,3.45.3h5.76a7.87,7.87,0,0,0,1.8-.36,10.87,10.87,0,0,0,3.63-1.29,3.73,3.73,0,0,0-1.47.28M90,100.17A29.71,29.71,0,1,1,100.1,77.85,29.72,29.72,0,0,1,90,100.17m0-75.05a58.3,58.3,0,0,1,31.9,9.51H58.05A58.13,58.13,0,0,1,90,25.13M31.51,83.66a58.19,58.19,0,0,1,7.36-28.39V91.44a43.92,43.92,0,0,0,1.59,12,45.13,45.13,0,0,0,12,19.62,69.83,69.83,0,0,0,17.21,12.2,93.71,93.71,0,0,0,14.77,6.1c1.06.34,2.13.65,3.21.94a58.63,58.63,0,0,1-56.11-58.6m55.23,44.82A5.41,5.41,0,0,1,85.18,127a3.91,3.91,0,0,0-.8-1c-.33-.28-.69-.73-1.15-.76s-1,0-1.52,0c-.16,0-.34-.32-.44-.42a2.32,2.32,0,0,0-.55-.44l-.54-.36c-.28-.2-.28-.34-.54,0a10.86,10.86,0,0,1,1.2,1.42c.14.2,0,.6.35.6a6,6,0,0,1,1.2,0c1.35.19,2.13,1.59,2.65,2.73a5.61,5.61,0,0,1,.36,2,5.12,5.12,0,0,1-.06.78,5.41,5.41,0,0,1-.38.89s-.2.68-.3.7l-1.07.3a3.64,3.64,0,0,1-1.82-.22,5.09,5.09,0,0,1-1.81-1c-.18-.12-.68-.36-.78-.56l-.58-1.2a2,2,0,0,1-.12-.85,3.47,3.47,0,0,1,1.06-3.09c.18.36.24.73.4,1.07a.49.49,0,0,0,.86.16c.36-.34-.28-.65-.46-.85a.53.53,0,0,1-.14-.46.65.65,0,0,0-.2-.54,8.11,8.11,0,0,0-.86-.9c-.2-.18-.73-.5-.78-.76s-.16-1-.52-.55,0,.63.15,1a7.13,7.13,0,0,1-2-.42c-.58-.16-1.15-.35-1.73-.53A31.72,31.72,0,0,1,71,122.37a24.86,24.86,0,0,0-3.56-1.11,2.06,2.06,0,0,0-.7,0c-.3,0-.84-.18-1.09,0a1.53,1.53,0,0,1-.8.24,1.63,1.63,0,0,1-.92-.32c-.94-.72-1-2.11-1.75-3a9.82,9.82,0,0,0-2.59-2.59c-.4-.22-1.18-.65-1.32-1.11s-.2-.64.2-.64a.87.87,0,0,1,.89.42c.36.42,1.1.2,1.5.46l1.63,1c1.1.68,2,1.5,3.11,2.23a16.33,16.33,0,0,0,3.17,1.68A12.48,12.48,0,0,0,72,121.1a5.5,5.5,0,0,1,1.82.56c.32.16.46.18.7,0a1.74,1.74,0,0,0,.45-.78,1.7,1.7,0,0,1,.26-.34l-.21-.33a1.91,1.91,0,0,1-.22-.84,3.51,3.51,0,0,1,.48-.84,5.69,5.69,0,0,1,.6-.7,3.47,3.47,0,0,1,1.3-1,8.7,8.7,0,0,1,1.75-.32,4,4,0,0,1,1.76,0,3.2,3.2,0,0,0,.87.38c.28,0,.55,0,.82,0a1.67,1.67,0,0,1,.42,1.62,6.54,6.54,0,0,1-.86,1.81c-.18.24-.26.62-.5.78a9.85,9.85,0,0,1-1,.64,5.14,5.14,0,0,1-2.14.58,3.85,3.85,0,0,1-1.07-.1c-.22,0-.86,0-.9-.28s.3-.64.56-.88-.14-.73-.26-.94-.2.14-.2.24v.38l-.66.66s-.2.16-.2.24v.42a4.31,4.31,0,0,1-.51.62c.53.26,1.09,0,1.67.14.24,0,.52.26.76.26H79.7c.22,0,.49-.26.76-.3a4.46,4.46,0,0,0,1.61-.62,2.11,2.11,0,0,0,.76-.39c.22-.25.44-.46.64-.7a9.64,9.64,0,0,1,1.21-1.34c.94-.76,1.9-1.49,2.89-2.18a23.83,23.83,0,0,1,3.41-2,6.42,6.42,0,0,1,1.74-.25,9.48,9.48,0,0,0,2-.14,14.06,14.06,0,0,1,3.43,0c.7.12,1.45.1,2.13.28a5.82,5.82,0,0,0,1.9.22H104c.62,0,1.21-.14,1.81-.18a4.33,4.33,0,0,1,1.64.2c.34.12,1.73.52,1,.94a5.45,5.45,0,0,1-1.77.55,6,6,0,0,0-1.58.78,11.55,11.55,0,0,1-1.53,1c-.58.24-1.14.48-1.71.68a28.46,28.46,0,0,1-3.47,1.09c-.62.15-1.18.4-1.8.56a4.61,4.61,0,0,1-.91,0,2,2,0,0,0-.9.24,3.25,3.25,0,0,1-.88.15,7.06,7.06,0,0,0-.91.21c-.6.16-1.24.22-1.86.34-1.19.2-2.42.26-3.61.4a13.37,13.37,0,0,1-1.79,0h-.8a3.1,3.1,0,0,1-.86,0c-.65-.14-1,.28-1.61.44a3.15,3.15,0,0,0-.8.4c-.28.18.54.45.58.48a11.08,11.08,0,0,0,2,.12,1,1,0,0,0,.7-.12,2,2,0,0,1,.88-.3,14.55,14.55,0,0,1,3.49,0,5.88,5.88,0,0,1,2,.36l1.75.66c1.1.4,2.14.88,3.23,1.31a8.29,8.29,0,0,0,1.88.5c.5,0,1,.4,1.43.52a14.48,14.48,0,0,0,3.57.64h1.3c.44,0,.83-.28,1.29-.2a4.35,4.35,0,0,0,1,0,4.3,4.3,0,0,1,.76.34c.5.2.7.14.58.73a2.68,2.68,0,0,1-.73.22,3.94,3.94,0,0,0-1,0,16.29,16.29,0,0,0-2.42,1,13.08,13.08,0,0,1-1.78.83l-2.15.64a12,12,0,0,1-3.56.63,9.53,9.53,0,0,1-4-.62l-1.74-.83c-1.36-.6-2.69-1.27-4-2m4.54,13.9c2.21-.46,4.41-1,6.56-1.7a85.79,85.79,0,0,0,15.85-6.59,49.16,49.16,0,0,0,14.42-11.11c5-5.76,9.53-12,11.39-19.42a33.87,33.87,0,0,0,1.61-12.08V55.57a58.53,58.53,0,0,1-49.84,86.65"/><path class="cls-3" d="M95,129.7c.61.09,1.22.16,1.84.19a5.91,5.91,0,0,0,2.37,0,10.81,10.81,0,0,1,1.87-.35v-.28a9.12,9.12,0,0,0-1.81,0,13.17,13.17,0,0,1-2.33-.38c-.78-.14-1.61-.46-2.42-.66a31.23,31.23,0,0,1-4.27-1.67,9.21,9.21,0,0,0-3.64-.58c.1.38,1.39.52,1.71.6a6.83,6.83,0,0,1,1.46.72A36.17,36.17,0,0,0,93,129a8.28,8.28,0,0,0,1.85.76"/><path class="cls-3" d="M63.25,117.06a4.44,4.44,0,0,0-1.12-.9c-.19.3.64.8.84,1s1.16,1.17,1,1.65c-.12-.21-.32-.25-.36,0a2,2,0,0,0,.14.6,2.69,2.69,0,0,0,.3.67.44.44,0,0,0,.62,0,.38.38,0,0,0,.13-.25,2.82,2.82,0,0,0-.43-1.74A8.4,8.4,0,0,0,63.26,117"/><path class="cls-3" d="M84.94,121.44c1.16-.36,2.28-.73,3.43-1.06s2.36-.49,3.53-.72a23.21,23.21,0,0,1,3.71-.54,16.83,16.83,0,0,0,1.86-.22,5.22,5.22,0,0,0,1.45-.64,6.51,6.51,0,0,1,2-.53,8.29,8.29,0,0,0,1.65-.13s.38-.12.36-.2,0-.22-.26-.22h-1a13.27,13.27,0,0,0-1.66.24c-1.27.16-2.53,0-3.81.22a27.34,27.34,0,0,0-3.35.6,33.53,33.53,0,0,0-4.18,1.26c-1.36.58-2.69,1.21-4,1.83,0,.16.2.14.32,0"/><path class="cls-3" d="M56.2,57.17a2,2,0,0,1,1.07-.7c.16,0,.4.1.34.26s-.28.32-.34.52a3.46,3.46,0,0,1-.6,1.29c-.2.25.1.26-.29.4a1.55,1.55,0,0,0-.56.28.82.82,0,0,1-.52.18c-.22,0-.4-.26-.6-.26s-.46,0-.46-.12a1.2,1.2,0,0,1,.38-.56c.2-.18.76,0,1.16-.18s.32-.79.39-1.13"/><path class="cls-3" d="M53.76,59.08c.16,0,.32.1.1.2s-.3,0-.1-.2"/><path class="cls-3" d="M90.23,56.33a12.15,12.15,0,0,0-1.46-1c-.51-.32-.85-.81-1.37-1.17a4.55,4.55,0,0,1-.64-.6c-.18-.18-.5-.24-.7-.4a2.82,2.82,0,0,0-1.61-.76,5.08,5.08,0,0,0-.78,0,1.1,1.1,0,0,0-.88.28h-.4c-.1,0-.14.32-.16.38a2.68,2.68,0,0,1-.34.8c-.16.19-.32.45-.59.45a5.57,5.57,0,0,0-1,0l-.92.1c-.26,0-.48.22-.72.26a3.23,3.23,0,0,1-1,.12,8,8,0,0,0-1-.12c-.42,0-.49,0-.76.25a3.58,3.58,0,0,1-.68.61,10.33,10.33,0,0,1-1.74.92,2.81,2.81,0,0,0-.85.42c-.4.32,0,.32,0,.7-.28,0-.4-.18-.58-.38s-.2-.54-.3-.52a.66.66,0,0,0-.54.32c-.18.34-.22.26-.6.18a6,6,0,0,0-1.47,0c-.28,0-.94-.24-1.12,0s-.38.18-.66.22,0-.58,0-.73a2.37,2.37,0,0,1-.52-.73,1.28,1.28,0,0,0-1.35-.79.89.89,0,0,1-.7-.2c-.24-.2-.68-.22-.82,0a1.91,1.91,0,0,1-.63.5c-.12,0-.18.18-.3.24s-.3,0-.44,0-.4.34-.66.34a4.73,4.73,0,0,0-1,.14,3.39,3.39,0,0,1-.78,0c-.32,0-.49.28-.68.52a.89.89,0,0,0-.22.7c0,.32.42.27.66.29s.26,0,.26.1v.4c0,.3-.32.42-.32.7s1.31.2,1.53,0,0-.26.16-.36a.81.81,0,0,1,.34-.24c.28-.14.32-.52.5-.76a3.37,3.37,0,0,1,1.38-1c.18,0,.72,0,.72.12a.87.87,0,0,1-.39.78c-.2,0-.62-.12-.8,0s-.46,0-.64.43-.18.22,0,.38.16.3.12.3a3.1,3.1,0,0,0,.86,0,2.92,2.92,0,0,1,.88-.22c.35,0,.59,0,.32.38s-1.1.18-1.56.34a6.33,6.33,0,0,1-.94.28,1.19,1.19,0,0,0-.8.18c-.23.19-.44.39-.65.6s-.68-.16-.82-.25c-.62-.33,0-1.15-.38-1.51s-.62,0-.8,0a1.26,1.26,0,0,0-.83.14,6.39,6.39,0,0,1-1.54.84,4,4,0,0,0-.77.32,3.24,3.24,0,0,1-.88,0h-.73c-.24,0-.4.21-.62.6a3.09,3.09,0,0,1-.48.6c-.24.25-.32.52-.56.76s-.48-.3-.6-.36-.64.14-.82,0-.41-.34-.67,0A1.28,1.28,0,0,0,50,62a1.06,1.06,0,0,1-.34.62c-.2.2-.54.38-.42.66a1.63,1.63,0,0,1,.18.87c0,.38.54.28.78.28.41,0,.82.09,1.23.16s.4-.12.66-.46.24-.18.3-.29-.1-.25.12-.26a1.81,1.81,0,0,1,.83.1.81.81,0,0,0,.78.11.91.91,0,0,1,.82,0c.21.22.34.49.53.7s0,.62,0,.84a.75.75,0,0,0,0,.42.68.68,0,0,1,.25.5c0,.32,0,.38-.3.58s0,.36,0,.44a1.51,1.51,0,0,0,1-.46l.11.42c.5-.5.46-.86.46-1.54,0-.22-.36-.34-.36-.63v-.4c0-.26,0-.3.2-.3.68,0,.6.88.6,1.35a8,8,0,0,1-.1,1.62c.34,0,1.14,0,1.26-.46s-.1-.46-.1-.64.34-.1.5-.1a2.05,2.05,0,0,0-.16.88c0,.12-.16.12-.14.26a1.19,1.19,0,0,0,0,.46c.14.18.58.2.76.36a.46.46,0,0,1,.17.38c0,.24.15,0,.32.11s.5.44.44.58-.24.58-.48.66a2,2,0,0,1-.8-.14,2.2,2.2,0,0,1-.88-.4,1.78,1.78,0,0,0-.69-.46,2.55,2.55,0,0,0-.78,0h-.8a2.12,2.12,0,0,0-.44-.77c-.32-.32-1.24-.22-1.24-.88v-.4h.25a3.73,3.73,0,0,0,.46.73c.25-.18.17-.44,0-.7a1,1,0,0,0-.25-.26c-.2-.18-.12-.12-.38-.12s0,.14-.25,0a.48.48,0,0,1-.22-.3c0-.19,0-.19-.26-.26s-.22-.24-.38-.29a2.24,2.24,0,0,0-.73,0H51.32a2.24,2.24,0,0,1-.73,0l-1-.49s-.46-.34-.5-.3l-.5.34-2,1.42a12.63,12.63,0,0,0-2.67,2l-1.53,1.84a3.39,3.39,0,0,0-.3,1.43l-.32,2a6.82,6.82,0,0,1-.26.88,2.48,2.48,0,0,0,.18.66,16.73,16.73,0,0,0,.62,1.85l.46,1a1.94,1.94,0,0,1,0,.83c0,.38,0,.4.3.68s.39.2.81,0,.44-.16.76.16.44.2.8.22,1.59,0,1.77,0a3.65,3.65,0,0,0,.6.58c.22.12.76.3.9.52s0,.76,0,1a1.43,1.43,0,0,0,.14.73c.28.61.54,1.23.78,1.87s.64,1,.64,1.5v1a3.77,3.77,0,0,1-.34.92.68.68,0,0,0,.16.55l.63,1.12a10,10,0,0,1,.56,1.3c.52,1.24,1,2.49,1.62,3.69l.85,1.71a.94.94,0,0,0,.64.3c.24,0,.49-.38.7-.48L57,95.44c.54-.26.5-1,.64-1.56s.14-.32.42-.44a.87.87,0,0,0,.64-1.06.65.65,0,0,0,0-.13c0-.14-.18-.26-.24-.38a2.55,2.55,0,0,1,0-.78c0-.61.32-.72.7-1.11a1.64,1.64,0,0,0,.49-1.42V86.21c0-.26-.87-1.08-.61-1.36l1.13-1.14a34.9,34.9,0,0,0,2.75-2.95,4,4,0,0,0,.7-1.53,2.52,2.52,0,0,1,.28-.84c0-.11.56-.67.28-.75a2.55,2.55,0,0,0-2,.57,2.29,2.29,0,0,1-.9-.09c-.6-.28-.56-1-.92-1.42s-.37-.6-.59-.7a.55.55,0,0,0-.4,0c-.06,0,0-.48,0-.56a7.91,7.91,0,0,0-.52-1.65,2.31,2.31,0,0,0-.4-.78,1.5,1.5,0,0,1,0-.84v-.79c0-.2.44-.58.6-.42a9.52,9.52,0,0,1,.49,1.65,10.11,10.11,0,0,0,.61,1.78c.16.3.38.38.66.55s.18.46.22.7a9.78,9.78,0,0,0,.3,1.3c.12.38.37.36.72.46s.64-.16.86-.22l.86-.28A9.85,9.85,0,0,0,65.24,76a2.16,2.16,0,0,1,.82-.24c.2,0,.46-.52.56-.68s.38-.36.46-.58.54-.79.34-.79H67a1.11,1.11,0,0,0-.28-.6c-.24-.24-1-.18-1.35-.18s-.44,0-.68-.36a5.38,5.38,0,0,1-.4-.84,1.07,1.07,0,0,1-.1-.53.68.68,0,0,1,.56.35,2.61,2.61,0,0,1,.1.78h.76a.71.71,0,0,1,.68.32c.28.32.39.44.55.46l.94.14a4.23,4.23,0,0,1,1.42,0,.9.9,0,0,1,.72.32,2.73,2.73,0,0,1,.44.68c.22.38.2.42.64.46s.28,0,.32.36a4.47,4.47,0,0,0,.34,1.69,12.15,12.15,0,0,0,1,1.46,12.74,12.74,0,0,0,.91,1.27,2.51,2.51,0,0,0,.66-1.33.67.67,0,0,1,.28-.52c.2-.2.18-.38.18-.66a1.49,1.49,0,0,1,.62-1.35c.35-.34.77-.6,1.11-1a1.56,1.56,0,0,1,1.28-.54c.28,0,.48,0,.6.3s0,.5.12.7.11.24.19.28a.84.84,0,0,1,.32.14c.12.14.16.53.26.72.3.62.64.7,1.06.12a4.35,4.35,0,0,0,.46,1.4,5.34,5.34,0,0,1,.44,1.51,6,6,0,0,0,.62,1.48c.27.44.55,1,1.09,1.18.24,0,.42,0,.3-.3s-.18-.12-.2-.22v-.5a3.27,3.27,0,0,0-.56-1.44,2.37,2.37,0,0,0-.65-.49.94.94,0,0,1-.28-.62,1.2,1.2,0,0,1,.4-1.3c.35.36.85,1.2,1.37,1.28s.49-.34.7-.56.24,0,.32-.16a.8.8,0,0,0,.32-.46,3.07,3.07,0,0,0-.39-2,2.72,2.72,0,0,1-.16-1.1c0-.19.5-.58.65-.72.14.16.32.24.16.39a.36.36,0,0,0,0,.5h0c.12.16.42-.1.5-.2s0-.45,0-.57a.83.83,0,0,1,.68-.8c.3,0,.66-.62.88-.84a2.34,2.34,0,0,0,.34-1,5,5,0,0,0,0-1.34,4.13,4.13,0,0,0-.88-2.33c.14-.14.42-.38.22-.6s-.48.12-.66.3-.36-.6-.18-.73a2.36,2.36,0,0,0,.36-.26c.2-.2.18-.16.38,0s.36.38.56.54.18.54.26.86.14.22.24.32.16,0,.26-.12.46-.36.46-.58v-.84a1.23,1.23,0,0,1-.49-.87,2,2,0,0,1,.34-1.58c.3-.3.32-.28.12-.68,0,0-.22-.16-.18-.24a.74.74,0,0,0,.1-.46c0-.6.34-1,.12-1.63a4.59,4.59,0,0,0-.86-1.6l-.66-.6c-.17-.16-.57-.36-.67-.55s0-.28,0-.4-.22-.22-.3-.3-.52.2-.73.2,0-.78,0-.84a.83.83,0,0,1,.56-.52.91.91,0,0,0,.83-.28c.26-.27.18-.48.4-.69a5.33,5.33,0,0,1,.7,1.07l.2.4H88c.06,0,.22.3.6.3s.83.4,1.27.4.49.1.49-.28a1.3,1.3,0,0,0-.26-.64m-28.38,3.8c.24,0,.18.16,0,.24s-.26-.18,0-.24m1.35,6.78c-.28.38-1.12-.34-1.51-.26s-.62,0-.52-.32.18-.61.36-.72.52-.34.68-.22a.45.45,0,0,1,.21.32c0,.16.16.1.32.1a.49.49,0,0,1,.56.4c.12.39.14.39,0,.67m3-.21a.72.72,0,0,0-.18.75.8.8,0,0,1,0,.82c-.11.2-.14.73-.53.64s-.46.16-.62-.2,0-.38.26-.38.16-.46.14-.7a2.62,2.62,0,0,1,0-.79c0-.34.18-.42.5-.52s.72,0,.55.38"/><path class="cls-3" d="M54.52,56.85c.12,0,.26-.18.34-.14l.42.12c.3,0,.38.16.42.45s0,.44-.12.56a1.91,1.91,0,0,1-.7.22,2,2,0,0,0-.73.1c-.27.16-.39.24-.57-.12s.17-.44.41-.64a4.55,4.55,0,0,0,.49-.58"/><path class="cls-3" d="M62.48,87.51c0-.38,0-.44.42-.54s.45.32.53.49a3.15,3.15,0,0,1,.16,1.77c0,.24-.29.52-.43.73a2,2,0,0,0-.3.66,2.14,2.14,0,0,0-.16.87c0,.2.28.6.16.73s-.42.5-.56.4a6.86,6.86,0,0,1-.68-.64c-.34-.36-.2-1.12-.2-1.58a2.54,2.54,0,0,0,0-.87,1.23,1.23,0,0,1,0-.76.94.94,0,0,1,.4-.7c.22-.12.36-.42.64-.56"/><path class="cls-3" d="M74,79.36s.52-.68.54-.66a4.44,4.44,0,0,1,.12.9c0,.26-.18.77-.52.61s-.18-.65-.16-.85"/><path class="cls-3" d="M79.08,80.31a2.47,2.47,0,0,1,1.46.28,6.58,6.58,0,0,1,1.07,1c.32.36.73.64,1,1s0,1-.1,1.33-.76-.73-.82-.86c-.24-.45-.63-.77-.85-1.25a1.75,1.75,0,0,0-1-.92,2.43,2.43,0,0,1-.66,0c-.16,0-.36-.46-.18-.58"/><path class="cls-3" d="M83.09,83.24c.13.3.24.6.34.9s.73.26.92.28.63,0,.79.24,0,.73-.24.6-.36-.36-.73-.36a1.9,1.9,0,0,1-.87-.22c-.28-.11-.64-.24-.36-.58s-.12-.61.12-.85"/><path class="cls-3" d="M85.66,85.28a.87.87,0,0,1,.66.16,1.72,1.72,0,0,0,.64,0,1.79,1.79,0,0,1,.72.12c.34.12.38.2,0,.42s-1.05-.12-1.29-.2a1.77,1.77,0,0,0-.64-.16c-.22,0-.5-.3-.16-.4"/><path class="cls-3" d="M88.74,86h.52c.06,0,.16.44-.18.49a2.44,2.44,0,0,1-.54,0c-.22,0-.3.1-.52.16a1.51,1.51,0,0,1-.52,0c-.18,0-.34-.38,0-.38a2.32,2.32,0,0,0,1.3-.22"/><path class="cls-3" d="M83.83,80.67a2.31,2.31,0,0,0,1.27-.52,5.25,5.25,0,0,0,.62-.53c.18-.22.36-.58.66-.44s.65.28.63.39-.21.26-.53.46-.12.42,0,.62a.73.73,0,0,1,0,.78c-.18.34-.44.52-.44.66s-.24.35-.32.63-.26.32-.46.14a1,1,0,0,0-.68-.32c-.16,0-.62.18-.76.1a3.25,3.25,0,0,1-.26-.7,1.29,1.29,0,0,1-.16-.72c0-.34,0-.49.4-.56"/><path class="cls-3" d="M88.89,81.55a2.32,2.32,0,0,0-1.59.28,1.49,1.49,0,0,0-.62,1.3,1.59,1.59,0,0,0,0,.75c0,.14.48.5.63.46.52-.12-.43-.81-.15-1.23.19,0,.19.24.27.42a.58.58,0,0,0,.44.35c.26.08.5,0,.42-.21a.91.91,0,0,0-.42-.38c-.54-.26.42-.24.56-.38s-.52-.3-.73-.38.38-.44.66-.48.76-.25.46-.5"/><path class="cls-3" d="M89.33,80.31c.18-.1.56,0,.56.25V81c0,.16.24,0,.37.18s-.14.46-.24.56-.79-.2-.91-.44.2-.68.29-1"/><path class="cls-3" d="M88.19,78c0-.24.28-.62.5-.54s.25.52.14.7.2.42.2.76.32.7,0,.8-.39-.18-.69-.32a.75.75,0,0,0-.42,0,.53.53,0,0,1-.28.16c-.14,0-.32-.42-.1-.52s.5-.26.8,0c0-.16.19-.32.17-.5s-.14-.26-.21-.42"/><path class="cls-3" d="M87.62,76.9c.17,0,.59.5.27.54s-.58-.36-.27-.54"/><path class="cls-3" d="M88.21,76.35s.34.35.32.45-.29.16-.45.16-.25-1,.14-.6"/><path class="cls-3" d="M87.2,74.11a.82.82,0,0,1,.59.38c.2.28,0,.36-.17.54s.11.58.21.7.12.6,0,.58a1.29,1.29,0,0,1-.72-.3c-.22-.24,0-.36,0-.62s-.42-1.14.2-1.27"/><path class="cls-3" d="M87.52,71.52A.82.82,0,0,1,87.7,71c.17-.22.37.12.41.26a2.21,2.21,0,0,1,.16,1.08c-.09.46-.49.54-.83.22a2.8,2.8,0,0,1,0-1"/><path class="cls-3" d="M90.63,81.41c-.46-.76.24-.73.83-.64s.3.24.44.49,0,.2,0,.28a.45.45,0,0,0,.22.43c.22.1,1-.53,1.49-.18s.78,1,1.26,1.28a4.27,4.27,0,0,1,.73.46.93.93,0,0,0,.26.3c.12.06.24,0,.36.21.29.54.59,1.1.87,1.66s.78,1.43.28,1.61-.46-.55-.54-.77-.53,0-.77-.14-.6-.73-.94-.73-.5.62-1,.34-.5-.62-1-.78-.89-.34-.65-.78a.89.89,0,0,0,0-.56.68.68,0,0,0-.26-.53,1.94,1.94,0,0,0-1.06-.52,1.75,1.75,0,0,1-.6-.14c-.14,0-.24-.34-.38-.46s-.34-.26,0-.4a1.12,1.12,0,0,1,.56-.18c0-.12,0-.14-.16-.18"/><path class="cls-3" d="M97.3,82.19V82c.46,0,1.28.52,1.08,1a.37.37,0,0,1-.4.26c-.2,0-.16-.2-.24-.36s0-.35-.16-.39a.32.32,0,0,1-.28-.32"/><path class="cls-3" d="M97.17,83.32a1.13,1.13,0,0,1,0-.26c.29,0,.32.26.29.5a.58.58,0,0,1,0,.32c0,.12-.19.12-.26.22s-.53.16-.39-.2.5-.2.42-.6"/><path class="cls-3" d="M98.4,83.38c.52-.16.49,1,.14,1.14s-.5-.92-.14-1.14"/><path class="cls-3" d="M98.56,84.94a.57.57,0,0,1,.42-.28,3.64,3.64,0,0,1,0,.66,1.44,1.44,0,0,1-.24.72c-.13.07-.26-.34-.3-.48s-.18-.16,0-.36a.51.51,0,0,1,.24-.28"/><path class="cls-3" d="M89.77,86.67l.76.12h.91c.3,0,.28.22.28.54s-.24.38-.46.64.25,1,.54,1.37.36.34.58,0a3.09,3.09,0,0,0,.46-.81c0-.25.24-.44.32-.68s.14-.7.4-.86c.72-.46.52,1.12.52,1.51a1.18,1.18,0,0,0,.16.78,1.21,1.21,0,0,1,.09,1,3.56,3.56,0,0,0,.15,1.65,5.07,5.07,0,0,1,.11,1.78,4,4,0,0,1-.19.83,5.52,5.52,0,0,1-.44.7l-.42.84c-.12.24-.4.36-.52.6s-.28.52-.44.78a1.67,1.67,0,0,1-.6.61,13.64,13.64,0,0,1-1.38,1,1.49,1.49,0,0,1-.75.16h-.92a.73.73,0,0,1-.7-.22c-.18-.14-.22-.56-.22-.8a6.56,6.56,0,0,1,0-1.77c-.26,0-.42.38-.65.26s-.25-.42-.42-.73-.46-1.09-1.22-1.19a11.35,11.35,0,0,0-3.48.34,2.79,2.79,0,0,1-.62-.38.54.54,0,0,1-.18-.73,3.64,3.64,0,0,0,.38-.7,2.54,2.54,0,0,1,.12-1,6.25,6.25,0,0,1,.37-.66c.1-.24.14-.58.28-.86a2.26,2.26,0,0,1,1.12-1.1,11.76,11.76,0,0,0,1.6-.67,1,1,0,0,1,.41,0c.16,0,.2-.12.28-.25s.46-.36.66-.58a2.37,2.37,0,0,1,1.6-.65c.57-.1.93-.64,1.43-.94"/><path class="cls-3" d="M87.71,100.05a.78.78,0,0,1,.52.1c.16.1,0,.22,0,.26a1.07,1.07,0,0,0,.36-.1c.14,0,.42-.3.6-.26a.25.25,0,0,1,.11.35.29.29,0,0,1-.11.11l-.48.48c-.14.16-.18.46-.34.58s-.86.12-.8-.4a.48.48,0,0,1-.65-.22.45.45,0,0,1,0-.19,1.15,1.15,0,0,1,.6-.7"/><path class="cls-3" d="M58.2,52.18a1.89,1.89,0,0,1,.7.1c.32.1.37,0,.63-.2.25.18.1.54,0,.73a1.28,1.28,0,0,1-1.05.38c-.32,0-.7,0-.7-.38s.3-.46.5-.62"/><path class="cls-3" d="M86.56,57.39a10.24,10.24,0,0,1,2,1.47c.24.2.28.22.32.52a.58.58,0,0,0,.3.48c.16.12,1,.66.58.9s-1-.22-1.12-.32-.24-.83-.42-1.12c-.44-.69-1.33-1-1.71-1.81l.18-.1"/><path class="cls-3" d="M90.61,57.56c.12,0,.85.42.44.49s-.62.18-.86,0l.42-.4"/><path class="cls-3" d="M90.92,58.5c.22,0,.22.18,0,.3s-.4,0-.56,0-.14-.3,0-.34a.69.69,0,0,1,.49,0"/><path class="cls-3" d="M89.59,61a2.8,2.8,0,0,0,.56.32c.16,0,.79-.26.89,0s.46.28,0,.5-.58.28-.65.46-.12.62-.28.58-.32-.6-.42-.9-.94-.91-.14-.95"/><path class="cls-3" d="M90.92,62.39c.24.16,0,.5.1.7s.4.16.44.44-.1.59,0,.83a2.08,2.08,0,0,1,0,.86,1.39,1.39,0,0,0-.12.28v.32c0,.08-.16,0-.2.18a2.58,2.58,0,0,0-.12.42c0,.34-.29.18-.52.32a3.07,3.07,0,0,1-1,.45c.1.22,0,.7-.4.52s0-.61,0-.77.38-.5.54-.76.46-.26.73-.28c0-.26-.56-.49-.56-.73s.54-.52.6-.82-.18-.83,0-1.07.12-.92.48-.94"/><path class="cls-3" d="M90.41,67.33c-.3-.12-1.14.4-.82.54s.92-.18.82-.54"/><path class="cls-3" d="M89.33,68.09l-.16-.26c-.16.16-.66.73-.46.94s.3-.16.38-.26.44-.18.22-.42"/><path class="cls-3" d="M94.07,53.2a1.56,1.56,0,0,0,1.4-.58,1.11,1.11,0,0,1,.62-.46,6.3,6.3,0,0,0,.72-.28,5,5,0,0,0,.84-.32,2.57,2.57,0,0,1,.73-.39,2.37,2.37,0,0,1,1.59.27c.38.16,1.16.2,1.32.66s0,.44.16.73a1.2,1.2,0,0,1,.26.8.77.77,0,0,0-.14.25v.5c0,.22-.36.46-.52.62a.9.9,0,0,1-.66.34c-.18,0-.2-.9-.24-1s-.3,0-.36.25a.63.63,0,0,1-.24-.34,5.68,5.68,0,0,1-.78.39,1.8,1.8,0,0,1-.8,0H96.14a2.43,2.43,0,0,1-.76-.14c-.12,0-.32-.18-.38,0a1,1,0,0,1-.34.32,3.57,3.57,0,0,1-1.13,0,2.8,2.8,0,0,1-1,0c.34-.67,1.3-.75,1.63-1.43"/><path class="cls-3" d="M97.56,59.14a.55.55,0,0,1,.56.4c0,.26-.48.22-.64.22s-.61-.18-.55-.4.45-.2.63-.2"/><path class="cls-3" d="M96.33,59.74a.7.7,0,0,1,.55.22c.22.22-.14.36-.33.36s-.54,0-.68-.2.21-.22.45-.36"/><path class="cls-3" d="M105,63.73c.32.1.32.16.5.44s.36.48.12.63-.42-.36-.52-.5-.36-.32,0-.58"/><path class="cls-3" d="M108,54.49c.1-.21,0-.28.32-.24s.26,0,.4.2.38.6.16.94-.46.28-.78,0-.14-.7,0-1"/><path class="cls-3" d="M110.62,51.05a2.34,2.34,0,0,1,.8-.88c.22-.14,1.1-.28,1,.14a1.65,1.65,0,0,0-.62.1,3.78,3.78,0,0,0-.4.4,2.09,2.09,0,0,1-.36.37c-.16.12-.53.15-.37-.17"/><path class="cls-3" d="M111.92,50.91a1.18,1.18,0,0,1,.88-.14c.16,0,.14-.5.24-.64s.26-.54.52-.64a2.23,2.23,0,0,1,1-.18c.6,0,1.18-.26,1.68.14s.3.12.64,0a1.07,1.07,0,0,1,.87.16l.8.46a5.22,5.22,0,0,1,.7.54c.24.16.5,0,.76.14a2.18,2.18,0,0,1,.86.4c.34.27.28.29.32.72a2.17,2.17,0,0,0,.38.88c.11.22,0,.5.09.73a5.49,5.49,0,0,1,.4.89,1.24,1.24,0,0,0,.4.62,1,1,0,0,1,.42.68c0,.73-.46.88-1.1.88a4.1,4.1,0,0,1-1.61-.36,4.17,4.17,0,0,1-1.54-1.12,5.39,5.39,0,0,0-.59-.58c-.25-.18-.52-.2-.54-.5s.2-.65,0-.72l-1-.16a7.89,7.89,0,0,0-1.53-.12,1.74,1.74,0,0,0-.86.14c-.2.14,0,.24,0,.3s-.36,0-.44,0c0,.87,1,.42,1.53.65s1.16.3,1.72.49a.85.85,0,0,1,.62.44,1.32,1.32,0,0,0,.65.58l.84.29c.34.12.4.4,0,.54s-.56,0-.58.25.12.57.1.87,0,.56-.36.5a3.93,3.93,0,0,1-.86-.28c-.39-.18-1.69.32-1.65-.45,0-.26.28-.44.36-.7s-.22-.38-.46-.52a2.13,2.13,0,0,0-.92-.24,2.06,2.06,0,0,1-.88-.54s-.29-.14-.34-.26a4.59,4.59,0,0,0-.24-.5,1.11,1.11,0,0,0-.89-.54c-.52,0-.42-.46-.56-.78a1.69,1.69,0,0,1-.14-.5c0-.28,0-.16-.28-.21s-.2-.12-.22-.38-.28-.3-.24-.49.68,0,.68.24c.2,0,.24-.35.24-.53a1.1,1.1,0,0,1,.24-.6"/><path class="cls-3" d="M123.6,52.48a.57.57,0,0,1,.79,0h0l0,0c.32.22.7.32,1,.54a5.36,5.36,0,0,1,.78.73c.14.16.24.24,0,.42a1,1,0,0,1-.49,0c-.44,0-.56-.22-.9-.42s-.16-.28-.35-.38a.69.69,0,0,0-.49,0c-.36.14-.64.14-.84-.22s-.11-.42,0-.44.4,0,.46-.26"/><path class="cls-3" d="M110.08,52.76c.16-.32.25-.58.62-.36s0,.56,0,.76-.54-.1-.58-.4"/><path class="cls-3" d="M109.27,53.85a2.85,2.85,0,0,1,.5-.6c.19-.2.59-.18.5.18a3.57,3.57,0,0,1-.4.68c-.24.36-.49,0-.6-.26"/><path class="cls-3" d="M110.64,53.76c.38-.26.6,0,.64.44s-.14.61-.16,1c-.32,0-.56-.36-.76-.58s.12-.3.22-.36,0-.37,0-.5h.1"/><path class="cls-3" d="M109.55,54.63a.46.46,0,0,1,.64-.08.3.3,0,0,1,.08.08c.16.2.2.22.14.49a1.09,1.09,0,0,0,0,.44.38.38,0,0,0,.36.18c.2,0,.28,0,.38.26s.24.19.32.34,0,.24-.2.37-.62,0-.94,0a1.63,1.63,0,0,1-.89-.34V55.5c0-.18-.32-.66,0-.88"/><path class="cls-3" d="M136.49,85.53a6.47,6.47,0,0,1-.7-1.39c0-.14-.49-.32-.61-.4a2.61,2.61,0,0,0-.66-.24l-1.4-.44a3.89,3.89,0,0,0-.6-.22h-.79a1.39,1.39,0,0,0-.12-1.19c-.2-.32-.44-.84-.86-.92a2,2,0,0,1-1.24-.46,2.46,2.46,0,0,1-.32-.6,1.6,1.6,0,0,0-.51-.42c-.36-.24-.7-.53-1.06-.79a4.45,4.45,0,0,0-1.08-.8,3.06,3.06,0,0,1-.58-.2c-.26-.14-.42-.34-.63-.12s-.64.68-1,.64c.12-.24.36-.3.5-.52s.2-.2,0-.34-.2-.26-.32-.22a6.45,6.45,0,0,1-1.78.44c-.28,0-.34.4-.52.54s-.11,0-.16,0l-.16.12c-.09,0-.24.28-.37.26s-.5-.2-.73-.1-.6.38-.76.32-.58-.14-.7-.36a1.55,1.55,0,0,1,0-.8c.1-.54.32-1.33-.5-1.35-.5,0-1.19.65-1.55,0s.93-1.14.18-1.48-1.14.3-1.58.46a.69.69,0,0,1-.84,0,6.27,6.27,0,0,1-.5-.73,1.14,1.14,0,0,1-.27-.81,1.63,1.63,0,0,1,.21-.73,2.62,2.62,0,0,1,.36-.86c.28-.28.46-.14.86,0s.52-.2.7-.28a5.84,5.84,0,0,1,.94-.22c.34,0,.44-.22.79-.14a1.25,1.25,0,0,1,.73.56c.16.24,0,.5,0,.76s.26.68.52.4a1.19,1.19,0,0,0,.22-1.62c-.14-.22-.3-.36-.26-.62a1.2,1.2,0,0,1,.28-.72,15.42,15.42,0,0,0,.91-1.26,4.88,4.88,0,0,0,.26-1.41,1.46,1.46,0,0,1,.64-1.24c.42-.18.26-.82.54-1.21a12.11,12.11,0,0,1,.94-1.2.75.75,0,0,0,.18-.56c0-.24-.46-.29-.3-.53s.24,0,.3-.12,0-.18-.14-.22a.7.7,0,0,0-.68.16c.14.16.32.18.2.38s-.22.5-.44.26,0-.32-.4-.4a2.58,2.58,0,0,0-.68,0c.16-.22.28-.46.54-.49s.57-.12.86-.16,1.25-.29,1.31-.83-.22-.47-.42-.72-.16-.28-.24-.29a2.68,2.68,0,0,0-.49.11,5.64,5.64,0,0,1-1.61-.43,2,2,0,0,1-1.38-1c-.14-.2-.26-.46-.53-.28a.63.63,0,0,1-.76,0,2.79,2.79,0,0,0-1.7-.3c-.38,0-.48.12-.54.48s.1.42.38.64,0,.42.28.6.42.32.46.54a3.8,3.8,0,0,1,.12,1.57c-.3-.2-.54-.53-.88-.61a3.18,3.18,0,0,1-1-.2l-1-.54h-.45a2.23,2.23,0,0,0-.39-.42c-.34-.28-.28-.46,0-.73s.61-.48.67-.88-.29-.79-.16-.89a5.44,5.44,0,0,1,1-.42c-.2-.49-1-.73-1.38-1a4.72,4.72,0,0,1-.69-.48c-.25-.25-.22-.46-.58-.6s-.52-.18-.58.2a1.92,1.92,0,0,0,.16.85c.12.28.44.52.24.82s-.46.24-.82.26a2.6,2.6,0,0,1-1.63-.16l-.8-.42c-.28-.16-.4-.36-.73-.46a10,10,0,0,1-1.67-.22,14.81,14.81,0,0,1-1.56-.87l-.55-.3c-.15,0-.32-.3-.46-.34a6.49,6.49,0,0,0-1.34.4,4.09,4.09,0,0,0-1.23.38.81.81,0,0,0-.22.59c0,.3-.2.28-.49.3s-.22,0-.34.3-.22.26-.38.4a1.37,1.37,0,0,0-.14,1.23c.1.3.25.34,0,.58s-.16.25-.53.16-.9-.14-1.18.16a3,3,0,0,0,.26.34h.35a1.46,1.46,0,0,0,.94.14c.29-.12.37-.36.68-.12s.61,0,.79-.11a5.28,5.28,0,0,1,1.86,0c.6,0,.91.67,1.15,1.15.54,1,.84,2.15,1.36,3.17,0,.12.2.1.26.26a.81.81,0,0,1,0,.38V68c0,.18.4.5.52.78l.44.83c.12.26.42.5.5.73a6.88,6.88,0,0,0,.81,1.6c.32.48.54,1.11,1.06,1.41s0-.64,0-.7-.38-.39-.32-.72,0-.44-.28-.73l-.58-.73c-.2-.28-.12-.5.22-.4s.36.34.49.62a3.85,3.85,0,0,0,.37.73c.18.26.25.54.44.8s.36.3.5.5.22.68.44.83.56,0,.68.3.24.56.36.84a3.2,3.2,0,0,0,2.61,2,3.93,3.93,0,0,1,.84,0,2.41,2.41,0,0,1,.79.46,4.88,4.88,0,0,0,1.48.82c.3,0,.54-.15.78,0s.26.51.54.67a2.31,2.31,0,0,0,.75.34,1.09,1.09,0,0,1,.36,0c.14.1,0,.32.22.4s.34-.2.44-.4a.41.41,0,0,1,.52-.27.51.51,0,0,1,.16.09,1.37,1.37,0,0,1,.54,1.52c0,.24-.32.44-.44.66l-.49.89a3,3,0,0,0,0,1.64,2.6,2.6,0,0,1,.18.87,2.23,2.23,0,0,0,.24,1,4.54,4.54,0,0,1,.2,1.68,6.31,6.31,0,0,0,0,.87,2.54,2.54,0,0,0,.49.76,4.71,4.71,0,0,0,.64.7c.16.14,0,.6,0,.82a3.21,3.21,0,0,1,0,.62c0,.19-.18.34-.2.53a3.44,3.44,0,0,1-.42,1.16l-.22.52c0,.16-.28.2-.34.34s-.14.42-.22.62-.26.32-.28.5a5.61,5.61,0,0,0,0,.58.59.59,0,0,1-.14.48l-.58.92a11.38,11.38,0,0,0-.6,1.15,6.59,6.59,0,0,1-.65,1c.16,0,.36.24.26.4s-.38.24-.54.34-.73.45-.8.79.22,1,0,1.2-.68.64-.16.86c-.28.43-.56.77-.16,1.23.12.12.44.32.49.49s0,.42,0,.63c.19,0,.34-.21.5-.09l.33.21a.5.5,0,0,0,.34,0c.25-.1.12-.14,0-.34s-.1-.11,0-.34a.77.77,0,0,0,0-.37c-.19-.54-.37.16-.58-.12.09-.11.17-.21.26-.3s.12-.1.34-.16a.93.93,0,0,0,.6-.56,14.86,14.86,0,0,1,.84-1.51,6.8,6.8,0,0,1,1.31-1.52,4.73,4.73,0,0,1,1.26-1,6.34,6.34,0,0,0,1.66-.69c.44-.4.87-.82,1.27-1.26s1.08-.48,1.54-.88a3.07,3.07,0,0,1,.83-.36,4.83,4.83,0,0,0,.8-.45c.45-.27.88-.57,1.3-.88s.75-.84,1.23-1a3.58,3.58,0,0,0,1.2-.79,3.2,3.2,0,0,0,1.09-1.22,2.42,2.42,0,0,1,.4-.72c.16-.22.12-.46.2-.7a5,5,0,0,1,.92-1.36,5.88,5.88,0,0,0,.85-1.31,7,7,0,0,1,.36-.66c.18-.28,0-.4-.12-.7M119.5,64.56c.1-.18.34-.14.5-.24a.31.31,0,0,1,.43.13.08.08,0,0,1,0,0c0,.26-1,.26-1.13.18l.16-.1m-1.78-.26a1.94,1.94,0,0,1,.66.24c.16,0,.82.28.42.44s-.58-.14-.78-.2-.82-.4-.3-.5m-.44.2c-.18.24-.65,1.32-1,1,0-.14.18-.22.21-.34l.14-.54c0-.28.54-.56.68-.16m-1.81-.89a2.66,2.66,0,0,0,.88-.18c.32-.2-.54-.38-.28-.66s.68.26.82.34a1.24,1.24,0,0,1,.35.9c-.33,0-.63-.1-1-.1s-1,0-.79-.3"/><path class="cls-3" d="M123.65,63.41c-.1.16-.28.5-.46.55s-.18-.37,0-.55.3-.52.56-.49.19.34,0,.49"/><path class="cls-3" d="M123.84,61.19c0-.12.22-.5.44-.29s0,.45-.2.57c.26.14.94,0,1,.4a.5.5,0,0,1-.24.5c-.22,0-.32-.14-.42-.3s-.84.44-1.06,0,.28-.72.44-.93"/><path class="cls-3" d="M119.71,73.85a3.77,3.77,0,0,0,1.48.5.51.51,0,0,1,.5.42c0,.14-.62.14-.73.12a3.48,3.48,0,0,1-1.47-.62.6.6,0,0,1-.25-.58c0-.34.44,0,.58.12"/><path class="cls-3" d="M123.4,74.69c.4,0,.94,0,1.06.44s-.28,0-.36,0a2.58,2.58,0,0,0-.68,0,1.17,1.17,0,0,1-.58-.12c-.1,0-.2-.29-.36-.39s.3-.2.36-.2.42,0,.54.26"/><path class="cls-3" d="M125,75.25c.22,0,.24-.12.44,0s.27.24.26.32-.62-.1-.78-.2v-.14"/><path class="cls-3" d="M114.83,57.74a.68.68,0,0,1,.64.36c.12.26,0,.52-.34.42s-.52-.16-.66-.44,0-.28,0-.36a1,1,0,0,0,.34,0"/></g></g></svg>